<svg width="24" height="24" viewBox="0 0 24 24" fill="none" xmlns="http://www.w3.org/2000/svg">
<path d="M7.46888 16.5311C8.73029 17.7593 10.2407 18.3734 12 18.3734C13.7593 18.3734 15.2531 17.7593 16.4813 16.5311C17.7427 15.2697 18.3734 13.7593 18.3734 12C18.3734 10.2407 17.7427 8.74689 16.4813 7.51867C15.2531 6.25726 13.7593 5.62656 12 5.62656C10.2407 5.62656 8.73029 6.25726 7.46888 7.51867C6.24066 8.74689 5.62656 10.2407 5.62656 12C5.62656 13.7593 6.24066 15.2697 7.46888 16.5311ZM20.5145 15.5353V20.5145H15.5353L12 24L8.46473 20.5145H3.48548V15.5353L0 12L3.48548 8.46473V3.48548H8.46473L12 0L15.5353 3.48548H20.5145V8.46473L24 12L20.5145 15.5353Z" fill="#666666"/>
</svg>
