<svg width="25" height="25" viewBox="0 0 25 25" fill="none" xmlns="http://www.w3.org/2000/svg">
<path d="M8.69675 0C12.0854 0 14.9735 1.23239 17.361 3.69718C19.787 6.12285 21 9.05712 21 12.5C21 15.9429 19.787 18.8967 17.361 21.3615C14.9735 23.7872 12.0854 25 8.69675 25C7.38749 25 6.15523 24.8239 5 24.4718C7.54152 23.6894 9.60169 22.2027 11.1805 20.0117C12.7978 17.7817 13.6065 15.2778 13.6065 12.5C13.6065 9.72222 12.7978 7.23787 11.1805 5.04695C9.60169 2.8169 7.54152 1.31064 5 0.528169C6.15523 0.176056 7.38749 0 8.69675 0Z" fill="#666666"/>
</svg>
