<svg width="24" height="24" viewBox="0 0 24 24" fill="none" xmlns="http://www.w3.org/2000/svg">
<path fill-rule="evenodd" clip-rule="evenodd" d="M16.0508 12.0014L23.3501 19.903C24.2166 20.8413 24.2166 22.3589 23.3501 23.2972C22.9186 23.7645 22.3498 24 21.7829 24C21.2159 24 20.6471 23.7645 20.2157 23.2972L11.3474 13.6957C10.4809 12.7593 10.4809 11.2398 11.3474 10.3034L20.2157 0.703735C21.0804 -0.234573 22.4836 -0.234573 23.3501 0.703736C24.2166 1.64014 24.2166 3.15967 23.3501 4.09608L16.0508 12.0014Z" fill="#4B9460"/>
<path fill-rule="evenodd" clip-rule="evenodd" d="M5.35324 12.0014L12.6526 19.903C13.5191 20.8413 13.5191 22.3589 12.6526 23.2972C12.2211 23.7645 11.6523 24 11.0854 24C10.5184 24 9.94963 23.7645 9.51816 23.2972L0.649878 13.6957C-0.216625 12.7593 -0.216625 11.2398 0.649878 10.3034L9.51816 0.703735C10.3829 -0.234573 11.786 -0.234573 12.6526 0.703736C13.5191 1.64014 13.5191 3.15967 12.6526 4.09608L5.35324 12.0014Z" fill="#4B9460"/>
</svg>
