<svg width="24" height="24" viewBox="0 0 24 24" fill="none" xmlns="http://www.w3.org/2000/svg">
<path d="M8.94353 14.9859C9.78935 15.8122 10.8082 16.2254 12 16.2254C13.1918 16.2254 14.2107 15.8122 15.0565 14.9859C15.9023 14.1596 16.3252 13.1643 16.3252 12C16.3252 10.8357 15.9023 9.84038 15.0565 9.01408C14.2107 8.18779 13.1918 7.77465 12 7.77465C10.8082 7.77465 9.78935 8.18779 8.94353 9.01408C8.09772 9.84038 7.67481 10.8357 7.67481 12C7.67481 13.1643 8.09772 14.1596 8.94353 14.9859ZM21.1694 13.1831L23.7645 15.1549C24.0336 15.3427 24.0721 15.6056 23.8799 15.9437L21.4001 20.1127C21.2463 20.3756 20.9964 20.4507 20.6504 20.338L17.5939 19.1549C16.7865 19.7183 16.0945 20.1127 15.5178 20.338L15.0565 23.493C14.9796 23.831 14.7873 24 14.4798 24H9.52022C9.21266 24 9.02042 23.831 8.94353 23.493L8.48218 20.338C7.7517 20.0376 7.05967 19.6432 6.40609 19.1549L3.34962 20.338C3.0036 20.4507 2.7537 20.3756 2.59992 20.1127L0.120144 15.9437C-0.0720865 15.6056 -0.0336404 15.3427 0.235483 15.1549L2.8306 13.1831C2.79215 12.9202 2.77293 12.5258 2.77293 12C2.77293 11.4742 2.79215 11.0798 2.8306 10.8169L0.235483 8.84507C-0.0336404 8.65728 -0.0720865 8.39437 0.120144 8.05634L2.59992 3.88732C2.7537 3.62441 3.0036 3.5493 3.34962 3.66197L6.40609 4.84507C7.21346 4.28169 7.90549 3.88732 8.48218 3.66197L8.94353 0.507042C9.02042 0.169014 9.21266 0 9.52022 0H14.4798C14.7873 0 14.9796 0.169014 15.0565 0.507042L15.5178 3.66197C16.2483 3.96244 16.9403 4.35681 17.5939 4.84507L20.6504 3.66197C20.9964 3.5493 21.2463 3.62441 21.4001 3.88732L23.8799 8.05634C24.0721 8.39437 24.0336 8.65728 23.7645 8.84507L21.1694 10.8169C21.2078 11.0798 21.2271 11.4742 21.2271 12C21.2271 12.5258 21.2078 12.9202 21.1694 13.1831Z" fill="#666666"/>
</svg>
